REM DIRINDEX 1\2,1\3,1\4,1\5,1\6
REM DIRNAME "folder01","folder02","folder03","folder04","folder05","folder06"
TITLE ""
FILE "Disc3Track44.mp3" MP3
  TRACK 01 AUDIO
    TITLE "3:cjc161_05462"
    INDEX 01 00:00:00
  TRACK 02 AUDIO
    TITLE "4:cjc161_05463"
    INDEX 01 00:01:10
  TRACK 03 AUDIO
    TITLE "5:cjc161_05464"
    INDEX 01 00:02:17
  TRACK 04 AUDIO
    TITLE "0:"
    INDEX 01 00:03:34
  TRACK 05 AUDIO
    TITLE "3:cjc161_05465"
    INDEX 01 00:03:67
  TRACK 06 AUDIO
    TITLE "4:cjc161_05466"
    INDEX 01 00:05:10
  TRACK 07 AUDIO
    TITLE "5:cjc161_05467"
    INDEX 01 00:07:51
  TRACK 08 AUDIO
    TITLE "6:cjc161_05468"
    INDEX 01 00:08:69
  TRACK 09 AUDIO
    TITLE "0:"
    INDEX 01 00:15:31
  TRACK 10 AUDIO
    TITLE "3:cjc161_05469"
    INDEX 01 00:15:65
  TRACK 11 AUDIO
    TITLE "4:cjc161_05470"
    INDEX 01 00:17:17
  TRACK 12 AUDIO
    TITLE "5:cjc161_05471"
    INDEX 01 00:18:12
  TRACK 13 AUDIO
    TITLE "0:"
    INDEX 01 00:19:39
  TRACK 14 AUDIO
    TITLE "3:cjc161_05472"
    INDEX 01 00:20:07
  TRACK 15 AUDIO
    TITLE "4:cjc161_05473"
    INDEX 01 00:21:38
  TRACK 16 AUDIO
    TITLE "5:cjc161_05474"
    INDEX 01 00:24:19
  TRACK 17 AUDIO
    TITLE "6:cjc161_05475"
    INDEX 01 00:25:47
  TRACK 18 AUDIO
    TITLE "0:"
    INDEX 01 00:27:72
  TRACK 19 AUDIO
    TITLE "3:cjc161_05476"
    INDEX 01 00:28:26
  TRACK 20 AUDIO
    TITLE "4:cjc161_05477"
    INDEX 01 00:29:49
  TRACK 21 AUDIO
    TITLE "5:cjc161_05478"
    INDEX 01 00:30:70
  TRACK 22 AUDIO
    TITLE "6:cjc161_05479"
    INDEX 01 00:32:16
  TRACK 23 AUDIO
    TITLE "0:"
    INDEX 01 00:37:04
  TRACK 24 AUDIO
    TITLE "3:cjc161_05480"
    INDEX 01 00:37:37
  TRACK 25 AUDIO
    TITLE "4:cjc161_05481"
    INDEX 01 00:38:70
  TRACK 26 AUDIO
    TITLE "5:cjc161_05482"
    INDEX 01 00:39:73
  TRACK 27 AUDIO
    TITLE "0:"
    INDEX 01 00:41:31
  TRACK 28 AUDIO
    TITLE "3:cjc161_05483"
    INDEX 01 00:41:74
  TRACK 29 AUDIO
    TITLE "4:cjc161_05484"
    INDEX 01 00:43:26
  TRACK 30 AUDIO
    TITLE "5:cjc161_05485"
    INDEX 01 00:44:35
  TRACK 31 AUDIO
    TITLE "6:cjc161_05486"
    INDEX 01 00:45:62
  TRACK 32 AUDIO
    TITLE "0:"
    INDEX 01 00:50:61
  TRACK 33 AUDIO
    TITLE "3:cjc161_05487"
    INDEX 01 00:51:17
  TRACK 34 AUDIO
    TITLE "4:cjc161_05488"
    INDEX 01 00:52:36
  TRACK 35 AUDIO
    TITLE "5:cjc161_05489"
    INDEX 01 00:53:50
  TRACK 36 AUDIO
    TITLE "0:"
    INDEX 01 00:54:69
  TRACK 37 AUDIO
    TITLE "3:cjc161_05490"
    INDEX 01 00:55:37
  TRACK 38 AUDIO
    TITLE "4:cjc161_05491"
    INDEX 01 00:56:58
  TRACK 39 AUDIO
    TITLE "5:cjc161_05492"
    INDEX 01 00:58:53
  TRACK 40 AUDIO
    TITLE "0:"
    INDEX 01 00:59:74
  TRACK 41 AUDIO
    TITLE "3:cjc161_05493"
    INDEX 01 01:00:42
  TRACK 42 AUDIO
    TITLE "4:cjc161_05494"
    INDEX 01 01:01:67
  TRACK 43 AUDIO
    TITLE "5:cjc161_05495"
    INDEX 01 01:03:44
  TRACK 44 AUDIO
    TITLE "6:cjc161_05496"
    INDEX 01 01:04:69
  TRACK 45 AUDIO
    TITLE "0:"
    INDEX 01 01:09:21
  TRACK 46 AUDIO
    TITLE "3:cjc161_05497"
    INDEX 01 01:09:53
  TRACK 47 AUDIO
    TITLE "4:cjc161_05498"
    INDEX 01 01:11:10
  TRACK 48 AUDIO
    TITLE "5:cjc161_05499"
    INDEX 01 01:13:19
  TRACK 49 AUDIO
    TITLE "0:"
    INDEX 01 01:14:52
  TRACK 50 AUDIO
    TITLE "3:cjc161_05500"
    INDEX 01 01:15:16
  TRACK 51 AUDIO
    TITLE "4:cjc161_05501"
    INDEX 01 01:16:27
  TRACK 52 AUDIO
    TITLE "5:cjc161_05502"
    INDEX 01 01:18:20
  TRACK 53 AUDIO
    TITLE "6:cjc161_05503"
    INDEX 01 01:19:29
  TRACK 54 AUDIO
    TITLE "0:"
    INDEX 01 01:23:49
  TRACK 55 AUDIO
    TITLE "3:cjc161_05504"
    INDEX 01 01:24:05
  TRACK 56 AUDIO
    TITLE "4:cjc161_05505"
    INDEX 01 01:25:26
  TRACK 57 AUDIO
    TITLE "5:cjc161_05506"
    INDEX 01 01:26:63
  TRACK 58 AUDIO
    TITLE "6:cjc161_05507"
    INDEX 01 01:28:09
  TRACK 59 AUDIO
    TITLE "0:"
    INDEX 01 01:32:46
